# xmcd
#
# Track frame offsets: 
#        150
#        12118
#        25868
#        36302
#        48682
#        58106
#        72069
#        80481
#        89792
#        100277
#
# Disc length: 1521 seconds
#
# Revision: 0
# Processed by: cddbd v1.5.2PL0 Copyright (c) Steve Scherf et al.
# Submitted via: ExactAudioCopy v1.3
#
DISCID=8405ef0a
DTITLE=Porter Wagoner - Love Shine
DYEAR=1984
DGENRE=Country
TTITLE0=Love Shine
TTITLE1=Keep On Loving You
TTITLE2=It Can Happen Overnight
TTITLE3=If You Go, I'll Follow You
TTITLE4=Life Rides The Train
TTITLE5=Love Paid It All
TTITLE6=Somewhere In The Night
TTITLE7=That's When Love Will Mean The Most
TTITLE8=Storm Of Love
TTITLE9=Something Between
EXTD=
EXTT0=
EXTT1=
EXTT2=
EXTT3=
EXTT4=
EXTT5=
EXTT6=
EXTT7=
EXTT8=
EXTT9=
PLAYORDER=
